<svg width="512" height="512" viewBox="0 0 512 512" fill="none" xmlns="http://www.w3.org/2000/svg">
<g clip-path="url(#clip0_673_139)">
<path d="M206 28.8675C236.94 11.0042 275.06 11.0042 306 28.8675L427.703 99.1325C458.643 116.996 477.703 150.008 477.703 185.735V326.265C477.703 361.992 458.643 395.004 427.703 412.868L306 483.132C275.06 500.996 236.94 500.996 206 483.132L84.2976 412.868C53.3575 395.004 34.2976 361.992 34.2976 326.265L34.2976 185.735C34.2976 150.008 53.3575 116.996 84.2976 99.1325L206 28.8675Z" fill="url(#paint0_linear_673_139)"/>
<path d="M226 93.3205C244.564 82.6025 267.436 82.6025 286 93.3205L381.885 148.679C400.449 159.397 411.885 179.205 411.885 200.641V311.359C411.885 332.795 400.449 352.603 381.885 363.32L286 418.68C267.436 429.397 244.564 429.397 226 418.68L130.115 363.32C111.551 352.603 100.115 332.795 100.115 311.359L100.115 200.641C100.115 179.205 111.551 159.397 130.115 148.679L226 93.3205Z" fill="#222222" fill-opacity="0.4"/>
<path d="M231 122.434C246.47 113.502 265.53 113.502 281 122.434L359.172 167.566C374.642 176.498 384.172 193.004 384.172 210.868V301.132C384.172 318.996 374.642 335.502 359.172 344.434L281 389.566C265.53 398.498 246.47 398.498 231 389.566L152.828 344.434C137.358 335.502 127.828 318.996 127.828 301.132L127.828 210.868C127.828 193.004 137.358 176.498 152.828 167.566L231 122.434Z" fill="#1A1B26"/>
<path fill-rule="evenodd" clip-rule="evenodd" d="M260.569 207.482L296.067 207.482C298.706 207.482 300.591 209.305 300.591 211.755C300.591 213.137 299.962 214.394 298.894 215.776L241.846 287.086C237.574 292.427 230.914 288.971 233.301 282.5L252.087 231.609L216.526 231.609C213.887 231.609 212.065 229.724 212.065 227.336C212.065 225.891 212.631 224.635 213.699 223.315L238.729 192L190.005 192C183.481 192 177.482 195.529 174.295 201.198C171.108 206.868 171.258 213.851 174.632 219.408L240.621 327.537C243.883 332.906 249.694 336.172 255.993 336.172C262.292 336.172 268.066 332.906 271.365 327.537L337.354 219.408C340.766 213.851 340.878 206.868 337.691 201.198C334.504 195.529 328.505 192 321.981 192L266.265 192L260.569 207.482Z" fill="url(#paint1_linear_673_139)"/>
</g>
<defs>
<linearGradient id="paint0_linear_673_139" x1="0.00012207" y1="256" x2="512" y2="256" gradientUnits="userSpaceOnUse">
<stop stop-color="#007BFF"/>
<stop offset="0.5" stop-color="#8000FF"/>
<stop offset="1" stop-color="#FF007F"/>
</linearGradient>
<linearGradient id="paint1_linear_673_139" x1="172" y1="264.086" x2="340" y2="264.086" gradientUnits="userSpaceOnUse">
<stop stop-color="#007BFF"/>
<stop offset="0.5" stop-color="#8000FF"/>
<stop offset="0.9999" stop-color="#FF007F"/>
</linearGradient>
<clipPath id="clip0_673_139">
<rect width="512" height="512" fill="white"/>
</clipPath>
</defs>
</svg>
