<svg width="512" height="512" viewBox="0 0 512 512" fill="none" xmlns="http://www.w3.org/2000/svg">
<g clip-path="url(#clip0_309_19)">
<path d="M241 8.66026C250.282 3.30127 261.718 3.30127 271 8.66025L462.703 119.34C471.985 124.699 477.703 134.603 477.703 145.321V366.68C477.703 377.397 471.985 387.301 462.703 392.66L271 503.34C261.718 508.699 250.282 508.699 241 503.34L49.2975 392.66C40.0155 387.301 34.2975 377.397 34.2975 366.68V145.321C34.2975 134.603 40.0155 124.699 49.2975 119.34L241 8.66026Z" fill="url(#paint0_linear_309_19)"/>
<path d="M241 52.6603C250.282 47.3013 261.718 47.3013 271 52.6603L424.597 141.34C433.879 146.699 439.597 156.603 439.597 167.321V344.68C439.597 355.397 433.879 365.301 424.597 370.66L271 459.34C261.718 464.699 250.282 464.699 241 459.34L87.4026 370.66C78.1206 365.301 72.4026 355.397 72.4026 344.68V167.321C72.4026 156.603 78.1206 146.699 87.4026 141.34L241 52.6603Z" fill="url(#paint1_linear_309_19)"/>
<path d="M241 100.66C250.282 95.3013 261.718 95.3013 271 100.66L383.028 165.34C392.31 170.699 398.028 180.603 398.028 191.321V320.679C398.028 331.397 392.31 341.301 383.028 346.66L271 411.34C261.718 416.699 250.282 416.699 241 411.34L128.972 346.66C119.69 341.301 113.972 331.397 113.972 320.679V191.321C113.972 180.603 119.69 170.699 128.972 165.34L241 100.66Z" fill="url(#paint2_linear_309_19)"/>
<path d="M241 152.66C250.282 147.301 261.718 147.301 271 152.66L337.995 191.34C347.277 196.699 352.995 206.603 352.995 217.321V294.679C352.995 305.397 347.277 315.301 337.995 320.66L271 359.34C261.718 364.699 250.282 364.699 241 359.34L174.005 320.66C164.723 315.301 159.005 305.397 159.005 294.679V217.321C159.005 206.603 164.723 196.699 174.005 191.34L241 152.66Z" fill="url(#paint3_linear_309_19)"/>
<path fill-rule="evenodd" clip-rule="evenodd" d="M246 182C246 176.477 250.477 172 256 172C261.523 172 266 176.477 266 182V306.875L297.012 275.924C300.917 272.026 307.249 272.026 311.154 275.924C315.06 279.821 315.06 286.141 311.154 290.038L263.599 337.5C261.765 339.642 259.041 341 256 341C252.959 341 250.234 339.642 248.4 337.5L200.846 290.038C196.94 286.141 196.94 279.821 200.846 275.924C204.751 272.026 211.083 272.026 214.988 275.924L246 306.875V182Z" fill="white"/>
</g>
<defs>
<linearGradient id="paint0_linear_309_19" x1="0" y1="256" x2="512" y2="256" gradientUnits="userSpaceOnUse">
<stop stop-color="#00DBDE"/>
<stop offset="1" stop-color="#FC00FF"/>
</linearGradient>
<linearGradient id="paint1_linear_309_19" x1="44" y1="256" x2="468" y2="256" gradientUnits="userSpaceOnUse">
<stop stop-color="#00DBDE"/>
<stop offset="1" stop-color="#FC00FF"/>
</linearGradient>
<linearGradient id="paint2_linear_309_19" x1="92" y1="256" x2="420" y2="256" gradientUnits="userSpaceOnUse">
<stop stop-color="#00DBDE"/>
<stop offset="1" stop-color="#FC00FF"/>
</linearGradient>
<linearGradient id="paint3_linear_309_19" x1="144" y1="256" x2="368" y2="256" gradientUnits="userSpaceOnUse">
<stop stop-color="#00DBDE"/>
<stop offset="1" stop-color="#FC00FF"/>
</linearGradient>
<clipPath id="clip0_309_19">
<rect width="512" height="512" rx="40" fill="white"/>
</clipPath>
</defs>
</svg>
