<svg width="512" height="512" viewBox="0 0 512 512" fill="none" xmlns="http://www.w3.org/2000/svg">
<g clip-path="url(#clip0_656_41)">
<g clip-path="url(#clip1_656_41)">
<path d="M473 199.826C482.1 185.005 482.4 166.38 473.9 151.259C465.4 136.138 449.4 126.725 432 126.725L80 126.725C62.6 126.725 46.6 136.138 38.1 151.259C29.6 166.38 30 185.005 39 199.826L215 488.221C223.7 502.54 239.2 511.252 256 511.252C272.8 511.252 288.2 502.54 297 488.221L473 199.826Z" fill="url(#paint0_linear_656_41)"/>
</g>
<path d="M362.883 168.019L268.204 168.019L318.141 32.2854C324.677 15.0259 306.747 5.80918 295.351 19.8856L143.196 210.247C140.347 213.766 138.839 217.118 138.839 220.972C138.839 227.34 143.698 232.367 150.736 232.367L245.582 232.367L195.478 368.101C189.111 385.36 206.873 394.577 218.268 380.333L370.424 190.139C373.273 186.452 374.948 183.101 374.948 179.414C374.948 172.879 369.921 168.019 362.883 168.019Z" fill="#FFF821"/>
</g>
<defs>
<linearGradient id="paint0_linear_656_41" x1="256.018" y1="126.725" x2="256.018" y2="511.252" gradientUnits="userSpaceOnUse">
<stop stop-color="#3EC01D"/>
<stop offset="1" stop-color="#1D5A0E"/>
</linearGradient>
<clipPath id="clip0_656_41">
<rect width="512" height="512" fill="white"/>
</clipPath>
<clipPath id="clip1_656_41">
<rect width="384.527" height="512" fill="white" transform="translate(512 126.725) rotate(90)"/>
</clipPath>
</defs>
</svg>
